<svg xmlns="http://www.w3.org/2000/svg"  viewBox="0 0 48 48" width="48px" height="48px" baseProfile="basic"><path fill="#52cccc" d="M41.25,39.25H6.75c-0.781-0.781-1.219-1.219-2-2v-26.5c0.781-0.781,1.219-1.219,2-2	h12.071l3.25,4H41.25c0.781,0.781,1.219,1.219,2,2v22.5C42.469,38.031,42.031,38.469,41.25,39.25z" opacity=".15"/><path fill="#52cccc" d="M42.256,20h-0.5v-2h0.5V20z M41.015,18h-0.5v2h0.5V18z M39.773,18h-0.5v2h0.5V18z M38.531,18h-0.5v2h0.5V18z M37.289,18h-0.5v2h0.5V18z M36.047,18h-0.5v2h0.5V18z M34.806,18h-0.5v2h0.5V18z M33.563,18h-0.5v2h0.5	V18z M32.322,18h-0.5v2h0.5V18z M31.08,18h-0.5v2h0.5V18z M29.838,18h-0.5v2h0.5V18z M28.596,18h-0.5v2h0.5V18z M27.354,18h-0.5v2	h0.5V18z M26.113,18h-0.5v2h0.5V18z M24.871,18h-0.5v2h0.5V18z M23.629,18h-0.5v2h0.5V18z M22.387,18h-0.5v2h0.5V18z M21.146,18	h-0.5v2h0.5V18z M19.904,18h-0.5v2h0.5V18z M18.662,18h-0.5v2h0.5V18z M17.42,18h-0.5v2h0.5V18z M16.178,18h-0.5v2h0.5V18z M14.937,18h-0.5v2h0.5V18z M13.694,18h-0.5v2h0.5V18z M12.453,18h-0.5v2h0.5V18z M11.211,18h-0.5v2h0.5V18z M9.969,18h-0.5v2h0.5	V18z M8.727,18h-0.5v2h0.5V18z M7.485,18h-0.5v2h0.5V18z M6.244,18h-0.5v2h0.5V18z" opacity=".8"/><polygon fill="#52cccc" points="17.75,15 21,15 17.75,11 7.682,11 7,11.682 7,14.318 7,15"/><polygon fill="#52cccc" points="17.75,15 21,15 17.75,11 7.682,11 7,11.682 7,14.318 7,15" opacity=".8"/><path fill="#52cccc" d="M41.768,11.5h-20.39l-2.438-3h-3.864L14,7.5H6.232L3.5,10.232V23l1,1v7l-1,1.006v5.762L6.232,40.5H16	l1-1h16l1,1h7.768l2.732-2.732V14.232L41.768,11.5z M6.854,9h11.848l3.25,4h19.195L43,14.854v2.021H5v-6.021L6.854,9z M41.146,39	H6.854L5,37.146V17.125h38v20.021L41.146,39z"/></svg>